# xmcd
#
# Track frame offsets:
#	150
#	21334
#	39944
#	62905
#	81513
#	99973
#	118302
#	139026
#	158058
#	186793
#	210846
#	228850
#	246459
#	276916
#
# Disc length: 4033 seconds
#
# Revision: 0
# Processed by: cddbd v1.5.2PL0 Copyright (c) Steve Scherf et al.
# Submitted via: EasyCDDAExtractor 16.0.9.1
#
DISCID=bf0fbf0e
DTITLE=Various Artist - Hit Hammer
DYEAR=2001
DGENRE=Dance
TTITLE0=Datura - Yerba Del Diablo Part III (Original Mix)
TTITLE1=D'Mixmaster - Rhythm and Drums (Radio Edit)
TTITLE2=Pink Panther - Overload (Groovy Original Mix)
TTITLE3=New York Rappers - Who Let The Dogs Out (Dance Mix)
TTITLE4=Alice D. - Celebrate Our Love (Extended Version)
TTITLE5=Piccadilly - Gonna Get You (Extended Mix)
TTITLE6=Angelica - Fly High (Extended Mix)
TTITLE7=DJ Kee - Now We Are Free (Radio Edit)
TTITLE8=DJ Pagano - Addicted To Music (Extended Mix)
TTITLE9=Unabomber - Simple Text (Original Mix)
TTITLE10=Basement Three - Free The Music (Edit Mix)
TTITLE11=A-Team - Upside Down (Radio Mix)
TTITLE12=Kabala - Pulp Melody (Original Mix)
TTITLE13=Frederik - La Trasgressione (Vocal Mix)
EXTD=
EXTT0=
EXTT1=
EXTT2=
EXTT3=
EXTT4=
EXTT5=
EXTT6=
EXTT7=
EXTT8=
EXTT9=
EXTT10=
EXTT11=
EXTT12=
EXTT13=
PLAYORDER=
